<svg viewBox="0 0 230 45" xmlns:xlink="http://www.w3.org/1999/xlink" xmlns="http://www.w3.org/2000/svg" data-name="图层 1" id="_图层_1">
  <defs>
    <style>
      .cls-1 {
        fill: url(#_未命名的渐变_9);
      }

      .cls-2 {
        fill: url(#_未命名的渐变_7);
      }

      .cls-3 {
        fill: #fff;
        fill-rule: evenodd;
      }

      .cls-4 {
        fill: url(#_未命名的渐变_9-2);
      }
    </style>
    <radialGradient gradientUnits="userSpaceOnUse" r="9.16" fy="9.13" fx="20.63" cy="9.13" cx="20.63" data-name="未命名的渐变 7" id="_未命名的渐变_7">
      <stop stop-color="#fff" offset="0"></stop>
      <stop stop-color="#fef8f8" offset=".15"></stop>
      <stop stop-color="#d82e2a" offset="1"></stop>
    </radialGradient>
    <linearGradient gradientUnits="userSpaceOnUse" y2="45.25" x2="27.91" y1="2.6" x1="28.19" data-name="未命名的渐变 9" id="_未命名的渐变_9">
      <stop stop-color="#fff" offset="0"></stop>
      <stop stop-color="#d82e2a" offset="1"></stop>
    </linearGradient>
    <linearGradient xlink:href="#_未命名的渐变_9" y2="38.51" x2="8.55" y1="-4.14" x1="8.82" data-name="未命名的渐变 9" id="_未命名的渐变_9-2"></linearGradient>
  </defs>
  <g>
    <path d="M20.63-.03C15.57-.03,11.46,4.07,11.46,9.13s4.1,9.16,9.16,9.16,9.16-4.1,9.16-9.16S25.69-.03,20.63-.03ZM20.63,11.77c-1.46,0-2.64-1.18-2.64-2.64s1.18-2.64,2.64-2.64,2.64,1.18,2.64,2.64-1.18,2.64-2.64,2.64Z" class="cls-2"></path>
    <g>
      <path d="M36.9,40.21c-4.79-3.17-8.23-8.2-9.29-14.07h-.01c-.39-2.36-2.45-4.16-4.92-4.16-2.76,0-4.99,2.24-4.99,4.99,0,.39.04.77.12,1.14h0c1.73,8.66,8.69,15.43,17.45,16.88h0c.25.05.52.06.79.02,1.33-.18,2.3-1.32,2.23-2.67-.05-.93-.59-1.72-1.37-2.13Z" class="cls-1"></path>
      <path d="M9.9,9.13c0-1.52.32-2.97.89-4.28h0S-6.45,18.53,2.65,43.35c0,0,0,0,0,0,.02.06.08.18.08.18.4.88,1.29,1.49,2.32,1.49,1.41,0,2.55-1.14,2.55-2.55,0-18.55,9.36-23,9.67-23.15-4.29-1.41-7.38-5.44-7.38-10.2Z" class="cls-4"></path>
    </g>
  </g>
  <g>
    <path d="M84.92,32.66h-12.39V12.01h12.39c.64,0,1.13.2,1.47.59.34.4.51.86.51,1.39s-.17,1.02-.51,1.4c-.34.39-.83.58-1.46.58h-8.4v3.11h5.1c.63,0,1.12.2,1.46.59.34.4.51.86.51,1.39s-.17,1.02-.51,1.4c-.34.39-.83.58-1.46.58h-5.1v5.65h8.4c.64,0,1.12.2,1.46.59.34.4.51.86.51,1.39s-.17,1.02-.51,1.4c-.34.39-.83.58-1.47.58h0Z" class="cls-3"></path>
    <path d="M109.48,14.65l-5.68,15.79c-.52,1.48-1.69,2.22-3.49,2.22s-2.97-.74-3.49-2.22l-5.58-15.79c-.09-.26-.13-.51-.13-.75,0-.54.21-.99.62-1.35.41-.36.88-.54,1.4-.54.89,0,1.49.43,1.79,1.3l5.43,15.16,5.45-15.16c.3-.87.89-1.3,1.76-1.3.54,0,1.02.18,1.43.54.41.36.62.81.62,1.35,0,.24-.04.49-.13.75h0Z" class="cls-3"></path>
    <path d="M67.1,22.96c.83-1.19,1.25-2.59,1.25-4.22,0-1.87-.62-3.46-1.85-4.77-1.23-1.3-2.81-1.96-4.72-1.96h-10.64v18.66c0,.64.19,1.13.58,1.48.39.34.86.51,1.42.51s1-.17,1.4-.51c.4-.34.6-.84.6-1.48v-8.25l9.15,9.61c.4.42.86.63,1.39.63s1.03-.2,1.44-.61c.41-.41.61-.88.61-1.41s-.19-.96-.58-1.36l-3.66-3.84c1.54-.4,2.74-1.22,3.62-2.47ZM63.47,21.33c-.52.4-1.4.59-2.62.59h-5.71v-5.95h6.13c.81,0,1.53.26,2.15.79.62.53.94,1.19.94,1.98,0,1.23-.3,2.09-.89,2.58Z" class="cls-3"></path>
    <path d="M121.91,12.02c-3.14,0-5.59.94-7.35,2.81-1.76,1.87-2.65,4.39-2.65,7.56s.89,5.58,2.66,7.45c1.82,1.93,4.26,2.9,7.34,2.9s5.57-.94,7.37-2.83c1.73-1.86,2.6-4.37,2.6-7.51s-.89-5.66-2.66-7.54c-1.77-1.89-4.21-2.83-7.31-2.83ZM121.91,28.84c-1.98,0-3.49-.57-4.52-1.71-1.03-1.14-1.55-2.72-1.55-4.73,0-4.32,2.02-6.48,6.07-6.48s6.04,2.16,6.04,6.48-2.01,6.45-6.04,6.45Z" class="cls-3"></path>
    <path d="M146.68,12.01h-10.68v18.73c0,.65.2,1.14.6,1.48.4.34.87.51,1.4.51s1.01-.17,1.4-.51c.4-.35.6-.84.6-1.49v-4.9h6.68c1.9,0,3.47-.7,4.73-2.09,1.25-1.39,1.89-3.05,1.89-4.97s-.63-3.48-1.87-4.79c-1.25-1.32-2.84-1.97-4.76-1.97ZM148.57,20.93c-.48.62-1.12.93-1.91.93h-6.64v-5.87h6.65c.77,0,1.4.25,1.9.76.49.51.74,1.18.74,2.02s-.24,1.54-.73,2.16Z" class="cls-3"></path>
    <path d="M174.64,14.84c-1.78-1.89-4.21-2.83-7.31-2.83s-5.59.94-7.36,2.82c-1.77,1.87-2.65,4.4-2.65,7.56s.89,5.59,2.66,7.45c1.82,1.93,4.27,2.9,7.34,2.9s5.58-.94,7.37-2.83c1.73-1.86,2.6-4.37,2.6-7.51s-.89-5.66-2.66-7.55ZM167.33,28.83c-1.98,0-3.49-.57-4.53-1.71-1.03-1.14-1.55-2.72-1.55-4.74,0-4.32,2.02-6.48,6.07-6.48s6.04,2.16,6.04,6.48-2.01,6.45-6.04,6.45Z" class="cls-3"></path>
    <path d="M185.39,30.74c0,.65-.19,1.14-.59,1.48-.39.34-.86.51-1.42.51s-1.01-.17-1.4-.51c-.4-.34-.6-.83-.6-1.48V14c0-.62.2-1.11.6-1.46.4-.35.87-.53,1.4-.53s1.03.18,1.42.53c.39.35.59.84.59,1.46v16.74h0Z" class="cls-3"></path>
    <path d="M208.22,32.68l-14.42-12.26v10.28c0,.64-.19,1.13-.59,1.47-.39.34-.86.51-1.42.51s-1.01-.17-1.41-.52c-.4-.34-.6-.83-.6-1.47V12.01l14.42,11v-9.01c0-.62.19-1.11.59-1.46.39-.35.86-.53,1.42-.53s1.01.18,1.41.53c.4.35.6.84.6,1.46v18.68h0Z" class="cls-3"></path>
    <path d="M228.01,15.99h-4.61v14.75c0,.64-.2,1.14-.6,1.48-.4.34-.87.51-1.4.51s-1.03-.17-1.42-.51c-.39-.34-.59-.84-.59-1.48v-14.75h-5.22c-.61,0-1.1-.19-1.45-.58-.35-.39-.53-.86-.53-1.41s.18-1,.53-1.39c.35-.4.84-.6,1.46-.6h13.83c.64,0,1.13.2,1.48.6.34.4.51.86.51,1.39s-.17,1.02-.51,1.41c-.34.39-.84.58-1.48.58Z" class="cls-3"></path>
  </g>
</svg>